{
    "asset" : {
        "generator" : "Khronos glTF Blender I/O v1.3.48",
        "version" : "2.0"
    },
    "scene" : 0,
    "scenes" : [
        {
            "name" : "Scene",
            "nodes" : [
                0,
                1
            ]
        }
    ],
    "nodes" : [
        {
            "mesh" : 0,
            "name" : "texture.png_texture.png_mesh.003",
            "rotation" : [
                0,
                0,
                0,
                -1
            ],
            "scale" : [
                0.6720259785652161,
                1,
                1
            ]
        },
        {
            "name" : "Sun",
            "translation" : [
                0,
                1.277268886566162,
                1.0252110958099365
            ]
        }
    ],
    "materials" : [
        {
            "doubleSided" : true,
            "emissiveFactor" : [
                0,
                0,
                0
            ],
            "name" : "Material.002",
            "pbrMetallicRoughness" : {
                "baseColorTexture" : {
                    "index" : 0,
                    "texCoord" : 0
                },
                "metallicFactor" : 0,
                "roughnessFactor" : 0.5
            }
        }
    ],
    "meshes" : [
        {
            "name" : "texture.png_texture.png_mesh.003",
            "primitives" : [
                {
                    "attributes" : {
                        "POSITION" : 0,
                        "NORMAL" : 1,
                        "TEXCOORD_0" : 2
                    },
                    "indices" : 3,
                    "material" : 0
                }
            ]
        }
    ],
    "textures" : [
        {
            "source" : 0
        }
    ],
    "images" : [
        {
            "bufferView" : 4,
            "mimeType" : "image/png",
            "name" : "stexture"
        }
    ],
    "accessors" : [
        {
            "bufferView" : 0,
            "componentType" : 5126,
            "count" : 83328,
            "max" : [
                2.6865956783294678,
                0.2857900857925415,
                0.13584302365779877
            ],
            "min" : [
                -2.6865956783294678,
                -0.2857900857925415,
                -0.13584299385547638
            ],
            "type" : "VEC3"
        },
        {
            "bufferView" : 1,
            "componentType" : 5126,
            "count" : 83328,
            "type" : "VEC3"
        },
        {
            "bufferView" : 2,
            "componentType" : 5126,
            "count" : 83328,
            "type" : "VEC2"
        },
        {
            "bufferView" : 3,
            "componentType" : 5125,
            "count" : 83328,
            "type" : "SCALAR"
        }
    ],
    "bufferViews" : [
        {
            "buffer" : 0,
            "byteLength" : 999936,
            "byteOffset" : 0
        },
        {
            "buffer" : 0,
            "byteLength" : 999936,
            "byteOffset" : 999936
        },
        {
            "buffer" : 0,
            "byteLength" : 666624,
            "byteOffset" : 1999872
        },
        {
            "buffer" : 0,
            "byteLength" : 333312,
            "byteOffset" : 2666496
        },
        {
            "buffer" : 0,
            "byteLength" : 582,
            "byteOffset" : 2999808
        }
    ],
    "buffers" : [
        {
            "byteLength" : 3000392,
            "uri" : "data:application/octet-stream;base64,"
        }
    ]
}
